<svg 
 xmlns="http://www.w3.org/2000/svg"
 xmlns:xlink="http://www.w3.org/1999/xlink"
 width="0.083in" height="0.125in">
<path fill-rule="evenodd"  fill="rgb(37, 37, 37)"
 d="M5.583,4.348 L1.424,0.106 C1.341,0.022 1.207,0.022 1.124,0.106 L0.724,0.514 C0.684,0.554 0.662,0.610 0.662,0.667 C0.662,0.724 0.684,0.779 0.724,0.820 L4.333,4.501 L0.724,8.182 C0.684,8.223 0.662,8.278 0.662,8.335 C0.662,8.392 0.684,8.447 0.724,8.487 L1.124,8.896 C1.165,8.938 1.219,8.959 1.274,8.959 C1.328,8.959 1.382,8.938 1.424,8.896 L5.583,4.654 C5.666,4.570 5.666,4.433 5.583,4.348 Z"/>
</svg>